<!DOCTYPE svg PUBLIC "-//W3C//DTD SVG 1.1//EN" "http://www.w3.org/Graphics/SVG/1.1/DTD/svg11.dtd">
<!-- Uploaded to: SVG Repo, www.svgrepo.com, Transformed by: SVG Repo Mixer Tools -->
<svg width="64px" height="64px" viewBox="0 -3.81 18.183439 18.183439" id="svg8" version="1.1" xmlns="http://www.w3.org/2000/svg" xmlns:cc="http://creativecommons.org/ns#" xmlns:dc="http://purl.org/dc/elements/1.1/" xmlns:inkscape="http://www.inkscape.org/namespaces/inkscape" xmlns:rdf="http://www.w3.org/1999/02/22-rdf-syntax-ns#" xmlns:sodipodi="http://sodipodi.sourceforge.net/DTD/sodipodi-0.dtd" xmlns:svg="http://www.w3.org/2000/svg" fill="#000000">
<g id="SVGRepo_bgCarrier" stroke-width="0"/>
<g id="SVGRepo_tracerCarrier" stroke-linecap="round" stroke-linejoin="round"/>
<g id="SVGRepo_iconCarrier"> <defs id="defs2"> <clipPath clipPathUnits="userSpaceOnUse" id="clipPath23"> <rect height="170.00711" id="rect25" style="opacity:1;fill:none;fill-opacity:1;stroke:#000000;stroke-width:1.5;stroke-linecap:round;stroke-linejoin:round;stroke-miterlimit:4;stroke-dasharray:none;stroke-dashoffset:0;stroke-opacity:0.97641512" transform="rotate(90)" width="263.84616" x="6.7847877" y="110.36194"/> </clipPath> </defs> <g id="layer1" transform="translate(93.559472,-456.41064)"> <rect height="58.184261" id="rect8011" ry="1.1433572" style="opacity:1;fill:none;fill-opacity:1;stroke:none;stroke-width:1.10699999;stroke-linecap:round;stroke-linejoin:round;stroke-miterlimit:4;stroke-dasharray:none;stroke-dashoffset:0;stroke-opacity:1" width="150.11761" x="-377.22021" y="-198.90477"/> </g> <g id="g8681" transform="translate(93.559472,-456.41064)"> <rect height="58.184261" id="rect8677" ry="1.1433572" style="opacity:1;fill:none;fill-opacity:1;stroke:none;stroke-width:1.10699999;stroke-linecap:round;stroke-linejoin:round;stroke-miterlimit:4;stroke-dasharray:none;stroke-dashoffset:0;stroke-opacity:1" width="150.11761" x="-377.22021" y="-198.90477"/> </g> <g id="g9233" transform="translate(93.559472,-456.41064)"> <rect height="58.184261" id="rect9229" ry="1.1433572" style="opacity:1;fill:none;fill-opacity:1;stroke:none;stroke-width:1.10699999;stroke-linecap:round;stroke-linejoin:round;stroke-miterlimit:4;stroke-dasharray:none;stroke-dashoffset:0;stroke-opacity:1" width="150.11761" x="-377.22021" y="-198.90477"/> <rect height="368.83194" id="rect9311" ry="1.1433572" style="opacity:1;fill:none;fill-opacity:1;stroke:none;stroke-width:1.10699999;stroke-linecap:round;stroke-linejoin:round;stroke-miterlimit:4;stroke-dasharray:none;stroke-dashoffset:0;stroke-opacity:1" width="313.2399" x="-594.38983" y="-161.63449"/> <path d="m -81.088014,456.91976 a 3.3756734,3.5566192 0 0 0 -3.375882,3.55669 3.3756734,3.5566192 0 0 0 0.02643,0.40627 2.5749984,2.1435125 0 0 0 -0.520165,-0.0443 2.5749984,2.1435125 0 0 0 -2.574962,2.1435 2.5749984,2.1435125 0 0 0 2.574962,2.1435 2.5749984,2.1435125 0 0 0 2.428118,-1.43754 3.3756734,3.5566192 0 0 0 1.441416,0.34511 3.3756734,3.5566192 0 0 0 3.375648,-3.55649 3.3756734,3.5566192 0 0 0 -3.375648,-3.55669 z" id="path4894" style="opacity:1;fill:#2ca02c;fill-opacity:1;stroke:#241f1c;stroke-width:1.0182327;stroke-linecap:round;stroke-linejoin:round;stroke-miterlimit:4;stroke-dasharray:none;stroke-dashoffset:0;stroke-opacity:1"/> <path d="m -81.088014,456.91976 a 3.3756734,3.5566192 0 0 0 -3.375882,3.55669 3.3756734,3.5566192 0 0 0 0.02643,0.40627 2.5749984,2.1435125 0 0 0 -0.520165,-0.0443 2.5749984,2.1435125 0 0 0 -2.574962,2.1435 2.5749984,2.1435125 0 0 0 2.574962,2.1435 2.5749984,2.1435125 0 0 0 2.428118,-1.43754 3.3756734,3.5566192 0 0 0 1.441416,0.34511 3.3756734,3.5566192 0 0 0 3.375648,-3.55649 3.3756734,3.5566192 0 0 0 -3.375648,-3.55669 z" id="path8223" style="opacity:1;fill:#2ca02c;fill-opacity:1;stroke:#241f1c;stroke-width:1.0182327;stroke-linecap:round;stroke-linejoin:round;stroke-miterlimit:4;stroke-dasharray:none;stroke-dashoffset:0;stroke-opacity:1"/> <path d="m -78.251258,461.26358 a 1.5032424,1.4614857 0 0 0 -1.489443,1.27436 1.5171613,1.5171613 0 0 0 -1.336114,-0.80112 1.5171613,1.5171613 0 0 0 -1.517207,1.51718 1.5171613,1.5171613 0 0 0 0.06459,0.43382 0.89081036,0.8490535 0 0 0 -0.23166,-0.03 0.89081036,0.8490535 0 0 0 -0.890049,0.83579 0.89081036,0.8490535 0 0 0 -0.529618,-0.16771 0.89081036,0.8490535 0 0 0 -0.890895,0.84892 0.89081036,0.8490535 0 0 0 0.890895,0.84912 0.89081036,0.8490535 0 0 0 0.760224,-0.40841 1.0439184,0.87689144 0 0 0 0.951815,0.51971 1.0439184,0.87689144 0 0 0 1.001353,-0.63146 1.7120261,1.4475668 0 0 0 1.364764,0.57593 1.7120261,1.4475668 0 0 0 1.464869,-0.70165 0.97432379,0.90472924 0 0 0 0.803929,0.39528 0.97432379,0.90472924 0 0 0 0.974435,-0.90468 0.97432379,0.90472924 0 0 0 -0.674952,-0.86055 1.5032424,1.4614857 0 0 0 0.786257,-1.28295 1.5032424,1.4614857 0 0 0 -1.503195,-1.46145 z" id="path8225" style="opacity:1;fill:#37c837;fill-opacity:1;stroke:#241f1c;stroke-width:1.0182327;stroke-linecap:round;stroke-linejoin:round;stroke-miterlimit:4;stroke-dasharray:none;stroke-dashoffset:0;stroke-opacity:1"/> <path d="m -89.414208,460.90167 a 2.2548638,1.9764856 0 0 0 -2.25502,1.97643 2.2548638,1.9764856 0 0 0 0.538031,1.27801 1.2527021,0.97432379 0 0 0 -0.203883,0.53156 1.2527021,0.97432379 0 0 0 0.0254,0.19485 h -0.947309 c -0.439528,0 -0.793367,0.35383 -0.793367,0.79336 0,0.43954 0.353839,0.79337 0.793367,0.79337 h 15.578473 c 0.439528,0 0.793367,-0.35383 0.793367,-0.79337 0,-0.43953 -0.353839,-0.79336 -0.793367,-0.79336 h -8.033823 a 0.94648599,0.96040488 0 0 0 0.0026,-0.0698 0.94648599,0.96040488 0 0 0 -0.946437,-0.96022 0.94648599,0.96040488 0 0 0 -0.142741,0.0114 1.6841883,1.4893235 0 0 0 -1.374466,-1.18673 2.2548638,1.9764856 0 0 0 -2.240799,-1.77598 z" id="path8779" style="opacity:1;fill:#5fd35f;fill-opacity:1;stroke:#241f1c;stroke-width:1.0182327;stroke-linecap:round;stroke-linejoin:round;stroke-miterlimit:4;stroke-dasharray:none;stroke-dashoffset:0;stroke-opacity:1"/> </g> </g>
</svg>