<!DOCTYPE svg PUBLIC "-//W3C//DTD SVG 1.1//EN" "http://www.w3.org/Graphics/SVG/1.1/DTD/svg11.dtd">
<!-- Uploaded to: SVG Repo, www.svgrepo.com, Transformed by: SVG Repo Mixer Tools -->
<svg width="64px" height="64px" viewBox="-2.58 0 21.44982 21.44982" id="svg8" version="1.1" xmlns="http://www.w3.org/2000/svg" xmlns:cc="http://creativecommons.org/ns#" xmlns:dc="http://purl.org/dc/elements/1.1/" xmlns:inkscape="http://www.inkscape.org/namespaces/inkscape" xmlns:rdf="http://www.w3.org/1999/02/22-rdf-syntax-ns#" xmlns:sodipodi="http://sodipodi.sourceforge.net/DTD/sodipodi-0.dtd" xmlns:svg="http://www.w3.org/2000/svg" fill="#000000">
<g id="SVGRepo_bgCarrier" stroke-width="0"/>
<g id="SVGRepo_tracerCarrier" stroke-linecap="round" stroke-linejoin="round"/>
<g id="SVGRepo_iconCarrier"> <defs id="defs2"> <clipPath clipPathUnits="userSpaceOnUse" id="clipPath23"> <rect height="170.00711" id="rect25" style="opacity:1;fill:none;fill-opacity:1;stroke:#000000;stroke-width:1.5;stroke-linecap:round;stroke-linejoin:round;stroke-miterlimit:4;stroke-dasharray:none;stroke-dashoffset:0;stroke-opacity:0.97641512" transform="rotate(90)" width="263.84616" x="6.7847877" y="110.36194"/> </clipPath> </defs> <g id="layer1" transform="translate(92.464016,-489.74568)"> <rect height="58.184261" id="rect8011" ry="1.1433572" style="opacity:1;fill:none;fill-opacity:1;stroke:none;stroke-width:1.10699999;stroke-linecap:round;stroke-linejoin:round;stroke-miterlimit:4;stroke-dasharray:none;stroke-dashoffset:0;stroke-opacity:1" width="150.11761" x="-377.22021" y="-198.90477"/> </g> <g id="g8681" transform="translate(92.464016,-489.74568)"> <rect height="58.184261" id="rect8677" ry="1.1433572" style="opacity:1;fill:none;fill-opacity:1;stroke:none;stroke-width:1.10699999;stroke-linecap:round;stroke-linejoin:round;stroke-miterlimit:4;stroke-dasharray:none;stroke-dashoffset:0;stroke-opacity:1" width="150.11761" x="-377.22021" y="-198.90477"/> </g> <g id="g9233" transform="translate(92.464016,-489.74568)"> <rect height="58.184261" id="rect9229" ry="1.1433572" style="opacity:1;fill:none;fill-opacity:1;stroke:none;stroke-width:1.10699999;stroke-linecap:round;stroke-linejoin:round;stroke-miterlimit:4;stroke-dasharray:none;stroke-dashoffset:0;stroke-opacity:1" width="150.11761" x="-377.22021" y="-198.90477"/> <rect height="368.83194" id="rect9311" ry="1.1433572" style="opacity:1;fill:none;fill-opacity:1;stroke:none;stroke-width:1.10699999;stroke-linecap:round;stroke-linejoin:round;stroke-miterlimit:4;stroke-dasharray:none;stroke-dashoffset:0;stroke-opacity:1" width="313.2399" x="-594.38983" y="-161.63449"/> <ellipse cx="-83.990654" cy="510.8844" id="ellipse8301" rx="3.877409" ry="0.31109855" style="opacity:1;fill:#b3b3b3;fill-opacity:1;stroke:none;stroke-width:0.79707766;stroke-linecap:round;stroke-linejoin:round;stroke-miterlimit:4;stroke-dasharray:none;stroke-dashoffset:0;stroke-opacity:1"/> <path d="m -86.702365,510.69112 h 4.700132" id="path977-8-5-8-4-2" style="opacity:1;fill:none;fill-opacity:1;stroke:#241f1c;stroke-width:0.51981038;stroke-linecap:round;stroke-linejoin:round;stroke-miterlimit:4;stroke-dasharray:none;stroke-dashoffset:0;stroke-opacity:1"/> <path d="m -84.497547,507.92862 c 0,0 3.765573,0.36125 3.231044,-2.39204" id="path972-85-1-7-3-1" style="opacity:1;fill:none;fill-opacity:1;stroke:#241f1c;stroke-width:0.59954154;stroke-linecap:round;stroke-linejoin:round;stroke-miterlimit:4;stroke-dasharray:none;stroke-dashoffset:0;stroke-opacity:1"/> <path d="m -81.903664,496.2348 a 4.0118354,4.6885666 24.683526 0 0 -4.346984,3.95818 4.0118354,4.6885666 24.683526 0 0 2.968663,5.15262 4.0118354,4.6885666 24.683526 0 0 0.157549,0.0179 3.0585795,4.3544554 58.0494 0 0 5.006608,-1.45148 3.0585795,4.3544554 58.0494 0 0 0.47861,-4.77978 3.0585795,4.3544554 58.0494 0 0 -0.708694,-0.34736 4.0118354,4.6885666 24.683526 0 0 -2.859794,-2.51131 4.0118354,4.6885666 24.683526 0 0 -0.695958,-0.0389 z" id="path4581-5-9-9" style="opacity:1;fill:#2ca02c;fill-opacity:1;stroke:#241f1c;stroke-width:1.01823282;stroke-linecap:round;stroke-linejoin:round;stroke-miterlimit:4;stroke-dasharray:none;stroke-dashoffset:0;stroke-opacity:1"/> <path d="m -84.834457,510.43806 -0.04063,-14.12726 1.337624,-1.4e-4 0.07827,14.1153 z" id="path979-8-6-6-8-0-8-4-4-0-5-1" style="opacity:1;fill:#784421;fill-opacity:1;stroke:#241f1c;stroke-width:0.60761064;stroke-linecap:round;stroke-linejoin:round;stroke-miterlimit:4;stroke-dasharray:none;stroke-dashoffset:0;stroke-opacity:1"/> <path d="m -86.739154,495.44312 a 4.6885666,4.0118354 65.316474 0 1 4.346984,3.95818 4.6885666,4.0118354 65.316474 0 1 -2.968677,5.15262 4.6885666,4.0118354 65.316474 0 1 -0.157536,0.0179 4.3544554,3.0585795 31.9506 0 1 -5.00662,-1.45147 4.3544554,3.0585795 31.9506 0 1 -0.478611,-4.77978 4.3544554,3.0585795 31.9506 0 1 0.708682,-0.34736 4.6885666,4.0118354 65.316474 0 1 2.859806,-2.51127 4.6885666,4.0118354 65.316474 0 1 0.695972,-0.0389 z" id="path4581-5-9-9-7" style="opacity:1;fill:#37c837;fill-opacity:1;stroke:#241f1c;stroke-width:1.01823282;stroke-linecap:round;stroke-linejoin:round;stroke-miterlimit:4;stroke-dasharray:none;stroke-dashoffset:0;stroke-opacity:1"/> <path d="m -84.442539,490.25777 a 4.0118354,4.6885666 24.683526 0 0 -4.346984,3.95818 4.0118354,4.6885666 24.683526 0 0 2.968677,5.15263 4.0118354,4.6885666 24.683526 0 0 0.157534,0.0179 3.0585795,4.3544554 58.0494 0 0 5.006609,-1.45145 3.0585795,4.3544554 58.0494 0 0 0.478622,-4.77979 3.0585795,4.3544554 58.0494 0 0 -0.708694,-0.34735 4.0118354,4.6885666 24.683526 0 0 -2.859794,-2.5113 4.0118354,4.6885666 24.683526 0 0 -0.69597,-0.0389 z" id="path8883" style="opacity:1;fill:#5fd35f;fill-opacity:1;stroke:#241f1c;stroke-width:1.01823282;stroke-linecap:round;stroke-linejoin:round;stroke-miterlimit:4;stroke-dasharray:none;stroke-dashoffset:0;stroke-opacity:1"/> </g> </g>
</svg>