<!DOCTYPE svg PUBLIC "-//W3C//DTD SVG 1.1//EN" "http://www.w3.org/Graphics/SVG/1.1/DTD/svg11.dtd">
<!-- Uploaded to: SVG Repo, www.svgrepo.com, Transformed by: SVG Repo Mixer Tools -->
<svg height="64px" width="64px" version="1.1" id="Layer_1" xmlns="http://www.w3.org/2000/svg" xmlns:xlink="http://www.w3.org/1999/xlink" viewBox="0 0 511.999 511.999" xml:space="preserve" fill="#000000">
<g id="SVGRepo_bgCarrier" stroke-width="0"/>
<g id="SVGRepo_tracerCarrier" stroke-linecap="round" stroke-linejoin="round"/>
<g id="SVGRepo_iconCarrier"> <g> <path style="fill:#0068FF;" d="M484.415,414.309c0,6.621-5.367,11.987-11.988,11.987h-233.89c-6.62,0-11.987-5.366-11.987-11.987 l0,0c0-6.621,5.367-11.987,11.987-11.987h233.89C479.048,402.322,484.415,407.688,484.415,414.309L484.415,414.309z"/> <polygon style="fill:#0068FF;" points="346.112,149.466 62.667,149.466 62.667,175.512 232.95,201.559 "/> <path style="fill:#0068FF;" d="M226.55,254.538c0,58.028,47.042,105.072,105.071,105.072h47.723 c58.029,0,105.071-47.044,105.071-105.072l0,0c0-58.03-47.042-105.072-105.071-105.072h-47.723 C273.592,149.466,226.55,196.508,226.55,254.538L226.55,254.538z"/> </g> <g> <path style="fill:#FFFFFF;" d="M475.325,297.338c5.839-13.075,9.089-27.557,9.089-42.801c0-58.03-47.042-105.072-105.071-105.072 H335.69c-0.047,1.206-0.078,2.417-0.078,3.633v52.948c0,50.419,40.872,91.291,91.29,91.291H475.325z"/> <path style="fill:#FFFFFF;" d="M99.613,198.232c13.231-13.231,17.882-31.792,13.954-48.77c-2.13-9.207-6.781-17.946-13.954-25.12 c-20.404-20.403-53.486-20.403-73.89,0c-20.403,20.405-20.403,53.487,0,73.89C46.127,218.638,79.208,218.638,99.613,198.232z"/> </g> <path d="M374.375,338.635h-0.522c-5.771,0-10.45-4.679-10.45-10.45s4.678-10.45,10.45-10.45h0.522c5.77,0,10.45,4.679,10.45,10.45 S380.146,338.635,374.375,338.635z"/> <path d="M339.147,338.635c-48.531,0-88.016-39.484-88.016-88.016c0-5.771,4.678-10.45,10.45-10.45c5.77,0,10.45,4.678,10.45,10.45 c0,37.008,30.108,67.117,67.117,67.117c5.77,0,10.45,4.679,10.45,10.45S344.918,338.635,339.147,338.635z"/> <path d="M501.55,75.254H209.415c-5.77,0-10.45,4.679-10.45,10.45s4.679,10.45,10.45,10.45h135.618v42.863h-223.75 c-3.129-8.24-7.977-15.758-14.281-22.063C95.159,105.111,79.415,98.59,62.667,98.59s-32.492,6.522-44.335,18.364 c-24.444,24.447-24.444,64.222,0,88.668c11.843,11.843,27.587,18.364,44.335,18.364s32.492-6.522,44.335-18.364 c3.487-3.487,6.5-7.307,9.025-11.375l108.654,16.619c-5.525,13.48-8.58,28.225-8.58,43.672c0,49.087,30.777,91.113,74.045,107.816 v29.519h-51.61c-12.371,0-22.436,10.065-22.436,22.436c0,12.371,10.065,22.436,22.436,22.436h233.89 c12.372,0,22.437-10.065,22.437-22.436c0-12.371-10.065-22.436-22.437-22.436H420.74v-29.49 c43.308-16.681,74.124-58.729,74.124-107.845c0-63.699-51.823-115.521-115.52-115.521h-13.412V96.153h135.618 c5.771,0,10.45-4.679,10.45-10.45C512,79.932,507.322,75.254,501.55,75.254z M62.667,203.087c-11.165,0-21.661-4.348-29.556-12.244 c-16.297-16.296-16.297-42.814,0-59.111c7.895-7.895,18.391-12.243,29.556-12.243s21.661,4.348,29.556,12.242 c5.546,5.548,9.406,12.492,11.163,20.088c2.067,8.932,1.165,18.03-2.351,26.108c-0.152,0.286-0.288,0.583-0.414,0.887 c-2.037,4.394-4.843,8.475-8.397,12.03C84.329,198.739,73.833,203.087,62.667,203.087z M234.53,191.23l-110.492-16.901 c0.996-4.704,1.445-9.537,1.328-14.413H265.43c-12.029,8.439-22.378,19.109-30.449,31.407 C234.831,191.293,234.683,191.254,234.53,191.23z M473.966,414.309c0,0.847-0.69,1.537-1.538,1.537h-233.89 c-0.847,0-1.537-0.69-1.537-1.537s0.69-1.537,1.537-1.537h233.89C473.276,412.772,473.966,413.461,473.966,414.309z M399.841,391.872h-88.797v-23.651c6.679,1.205,13.555,1.837,20.575,1.837h47.723c6.993,0,13.843-0.626,20.497-1.822v23.636H399.841 z M379.344,349.16h-47.723c-52.175,0-94.621-42.447-94.621-94.622c0-50.004,38.99-91.066,88.163-94.397v45.907 c0,56.101,45.641,101.74,101.739,101.74h30.614C440.464,332.745,411.786,349.16,379.344,349.16z M473.966,254.538 c0,11.358-2.013,22.252-5.698,32.351h-41.364c-44.576,0-80.84-36.265-80.84-80.841v-46.131h0.049h33.233 C431.519,159.915,473.966,202.363,473.966,254.538z"/> <path d="M81.202,142.753c-4.951-4.95-11.533-7.677-18.534-7.677c-7.001,0-13.583,2.726-18.533,7.677 c-4.951,4.95-7.679,11.533-7.679,18.534c0,7.001,2.727,13.584,7.677,18.533c4.951,4.952,11.533,7.679,18.535,7.679 c7.002,0,13.584-2.726,18.532-7.676c6.439-6.436,9.058-15.579,7.003-24.46C87.098,150.587,84.677,146.226,81.202,142.753z M66.423,165.045c-1.353,1.354-2.934,1.556-3.756,1.556c-0.821,0-2.402-0.202-3.758-1.557c-1.354-1.354-1.556-2.935-1.556-3.757 s0.202-2.402,1.557-3.757c1.353-1.354,2.935-1.556,3.757-1.556c0.821,0,2.403,0.202,3.759,1.557 c0.716,0.716,1.192,1.572,1.416,2.542C68.261,161.881,67.731,163.738,66.423,165.045z"/> </g>
</svg>